# xmcd
#
# Track frame offsets:
#	150
#	12035
#	25437
#	39032
#	51542
#	63342
#	77990
#	95872
#	108732
#	120545
#	136030
#	146177
#	163932
#	176952
#	189977
#	207157
#
# Disc length: 2994 seconds
#
# Revision: 0
# Processed by: cddbd v1.5.2PL0 Copyright (c) Steve Scherf et al.
# Submitted via: EasyCDDAExtractor 12.0.1.1
#
DISCID=e80bb010
DTITLE=Juliana Andrade and Jucimara - As Violeiras do Brasil
DYEAR=2009
DGENRE=Moda de Viola
TTITLE0=Perto do coração
TTITLE1=Derramado na paixão
TTITLE2=A enxada e a caneta
TTITLE3=Mão fechada
TTITLE4=Diamante verde
TTITLE5=Coração da natureza
TTITLE6=Tributo a Goiás
TTITLE7=Falou e disse
TTITLE8=Por telefone
TTITLE9=Felicidade
TTITLE10=Canoeira do Araguai
TTITLE11=Invernada da recordação
TTITLE12=Bolha de sabão
TTITLE13=Ninho de saudade
TTITLE14=Beleza divina
TTITLE15=Brincando com as cordas
EXTD=
EXTT0=
EXTT1=
EXTT2=
EXTT3=
EXTT4=
EXTT5=
EXTT6=
EXTT7=
EXTT8=
EXTT9=
EXTT10=
EXTT11=
EXTT12=
EXTT13=
EXTT14=
EXTT15=
PLAYORDER=
